<?xml version="1.0" encoding="utf-8"?>
<!DOCTYPE svg PUBLIC "-//W3C//DTD SVG 1.0//EN" "http://www.w3.org/TR/2001/REC-SVG-20010904/DTD/svg10.dtd">
<svg version="1.0" xmlns="http://www.w3.org/2000/svg" width="1024px" height="1024px" viewBox="0 0 1024 1024" preserveAspectRatio="xMidYMid meet">
 <g fill="#dfa347">
  <path d="M503 832 c-258.2 -0.5 -273.8 -0.6 -278.5 -2.3 -5.1 -1.8 -10.6 -4.6 -9.2 -4.7 0.5 0 1.8 0.5 3 1.1 1.8 0.9 2 0.9 1 -0.2 -0.7 -0.7 -2.6 -1.4 -4.3 -1.5 -3.4 -0.2 -10.3 -4.2 -9.5 -5.4 0.3 -0.5 -0.5 -1.4 -1.7 -2 -2.2 -1.1 -2.2 -1 -0.4 0.4 1.1 0.9 1.6 1.6 1.2 1.6 -3.3 0 -18.4 -16.8 -16.3 -18.2 0.8 -0.5 0.6 -0.8 -0.6 -0.8 -1.2 0 -2.9 -2.2 -5.3 -7.3 -6.8 -14.3 -6.4 -1.1 -6.4 -213.5 l0 -192.2 336 0 336 0.1 0 188.6 c0 181.8 -0.3 202.5 -2.9 200.9 -0.3 -0.3 -0.6 1.2 -0.6 3.2 0 3.9 -7.4 20 -10.2 22.4 -1.5 1.2 -1.5 1 -0.3 -1.2 1.2 -2.3 1.2 -2.4 -0.4 -1.1 -0.9 0.8 -1.4 2.1 -1.1 2.9 0.6 1.6 -3.3 6.5 -4.5 5.7 -0.4 -0.3 -1.6 0.5 -2.6 1.8 -1.6 1.8 -1.6 1.9 -0.1 0.8 3.5 -2.7 1.5 0.5 -2.3 3.7 -3.9 3.2 -5.7 4.1 -4.5 2.2 0.3 -0.6 -0.1 -0.7 -1 -0.3 -1.1 0.4 -1.3 0.8 -0.5 1.3 1.3 0.8 0.5 1.5 -6.2 5.3 -2.5 1.5 -5.3 2.4 -6.2 2.1 -0.8 -0.3 -2.3 -0.1 -3.3 0.6 -1.6 0.9 -1.5 1 0.7 0.5 1.9 -0.5 2.2 -0.4 1 0.4 -2.7 1.9 -12.4 4.4 -19.5 5 -3.8 0.3 -130.1 0.4 -280.5 0.1z m135 -104.2 c0 -0.5 1.5 -0.8 3.3 -0.8 4.5 0 19.1 -2.7 25.2 -4.6 6.2 -2 20.9 -8.6 21.3 -9.6 0.2 -0.5 1 -0.8 1.8 -0.8 0.8 0 1.4 -0.4 1.4 -1 0 -0.5 0.9 -1 2 -1 1.1 0 2 -0.7 2 -1.5 0 -0.9 0.8 -1.8 1.8 -2.2 2.4 -0.8 9.2 -7.4 9.2 -9 0 -0.7 0.9 -1.8 2 -2.5 1.1 -0.7 2 -1.9 2 -2.6 0 -0.7 0.7 -1.5 1.5 -1.8 0.8 -0.4 1.5 -1.2 1.5 -1.9 0 -0.7 0.3 -1.5 0.8 -1.7 1.2 -0.5 8.8 -15.9 11 -22.3 2.6 -7.6 5.2 -20.2 5.2 -25.4 0 -2.2 0.5 -4.2 1.3 -4.4 0.8 -0.4 0.9 -0.8 0.1 -1.4 -0.6 -0.4 -1.4 -3.9 -1.7 -7.8 -0.6 -6.8 -3.6 -21.5 -4.7 -22.5 -1 -1 -5 -10.1 -5 -11.6 0 -0.8 -0.7 -1.7 -1.5 -2 -0.8 -0.4 -1.5 -1.2 -1.5 -2 0 -0.8 -0.4 -1.4 -0.8 -1.4 -0.5 0 -1.5 -1.2 -2.3 -2.7 -0.8 -1.6 -2.2 -3.4 -3.1 -4.1 -1 -0.7 -1.8 -2 -1.8 -2.8 0 -0.8 -0.5 -1.4 -1 -1.4 -0.6 0 -1.5 -1.1 -2 -2.5 -0.6 -1.5 -2.5 -3.2 -4.5 -4.1 -2 -0.8 -3.8 -2.1 -4.2 -2.9 -0.3 -0.8 -1.1 -1.5 -1.9 -1.5 -0.8 0 -1.4 -0.7 -1.4 -1.5 0 -0.8 -0.9 -1.5 -1.9 -1.5 -1.1 0 -2.6 -0.6 -3.3 -1.3 -1.6 -1.6 -11.6 -5.9 -18.3 -8 -6.8 -2.2 -15.9 -3.7 -21.7 -3.7 -2.6 0 -4.8 -0.4 -4.8 -1 0 -0.5 -1.6 -1 -3.5 -1 -1.9 0 -3.5 0.5 -3.5 1 0 0.6 -1.9 1 -4.2 1 -9.8 0 -34.7 8.5 -37.1 12.6 -0.4 0.8 -1.7 1.4 -2.8 1.4 -1.2 0 -2.3 0.8 -2.6 2 -0.4 1.6 -1.4 2 -4.9 2 -5.4 0 -5.2 2.5 -1.9 -29.9 1.4 -13.5 2.5 -26.2 2.5 -28.3 0 -2.1 0.5 -3.8 1 -3.8 0.6 0 1 -1.3 1 -3 l0 -3 56.1 0 c48.5 0 56.2 -0.2 57.5 -1.5 0.9 -0.8 2.3 -1.5 3.2 -1.5 3.5 -0.1 5.2 -6.7 5.2 -20.3 0 -7.8 -0.4 -12.7 -1 -12.7 -0.5 0 -1 -1.1 -1 -2.5 0 -1.8 -0.5 -2.5 -1.9 -2.5 -1.1 0 -2.6 -0.7 -3.5 -1.5 -1.3 -1.3 -10.9 -1.5 -74.6 -1.5 l-73.1 0 -3.4 3.3 -3.3 3.2 -7.2 73.3 c-7 70.6 -7.2 73.3 -5.5 75.2 1.7 1.9 3.1 2 23.2 2 20.6 0 21.5 -0.1 22 -2 0.3 -1.1 0.9 -2 1.4 -2 0.5 0 0.9 -0.7 0.9 -1.5 0 -0.8 0.9 -1.9 2 -2.5 1.1 -0.6 2 -1.6 2 -2.2 0 -1.9 5.2 -6.8 7.2 -6.8 1 0 1.8 -0.6 1.8 -1.3 0 -0.8 2.2 -2.6 4.8 -4 8.2 -4.5 14.3 -5.5 30.7 -5.2 12.6 0.2 15.9 0.6 20.8 2.4 3.1 1.3 5.7 2.7 5.7 3.2 0 0.5 0.7 0.9 1.5 0.9 0.8 0 1.5 0.5 1.5 1 0 0.6 0.7 1 1.5 1 0.8 0 1.5 0.6 1.5 1.3 0.1 0.6 1.9 2.6 4 4.2 2.1 1.7 3.9 3.6 4 4.3 0 0.6 0.5 1.2 1 1.2 0.6 0 1 0.6 1 1.4 0 0.8 0.4 1.6 1 1.8 0.5 0.2 1.9 3 3.1 6.3 3.2 8.8 3.6 27.3 1 37.7 -2.1 8 -8.4 21.8 -10.1 21.8 -0.6 0 -1 0.5 -1 1 0 1.3 -7.7 9 -9 9 -0.6 0 -1.3 0.7 -1.6 1.5 -0.4 0.8 -1 1.5 -1.6 1.5 -0.5 0 -1.6 0.7 -2.4 1.5 -0.9 0.8 -4.8 2.5 -8.7 3.7 -6.2 2 -9.4 2.3 -22.6 2.3 -11.5 0 -15.5 -0.3 -15.9 -1.2 -0.2 -0.7 -1.5 -1.3 -2.8 -1.3 -1.3 0 -2.4 -0.4 -2.4 -1 0 -0.5 -1.1 -1 -2.5 -1 -1.4 0 -2.5 -0.4 -2.5 -1 0 -0.5 -0.7 -1 -1.5 -1 -0.8 0 -1.9 -0.9 -2.5 -2 -0.6 -1.1 -1.7 -2 -2.5 -2 -0.8 0 -1.5 -0.7 -1.5 -1.5 0 -0.8 -0.9 -2 -2 -2.7 -1.1 -0.7 -2 -1.8 -2 -2.5 0 -0.7 -0.4 -1.3 -1 -1.3 -0.5 0 -1 -0.9 -1 -2 0 -1.1 -0.4 -2 -0.9 -2 -0.5 0 -2 -2.7 -3.3 -6 l-2.3 -6 -21.2 0 c-13.5 0 -21.3 0.4 -21.3 1 0 0.6 -0.6 1 -1.4 1 -3.6 0 -2 9.5 3.6 21.5 1.8 3.9 3.6 7.2 4.1 7.3 0.4 0.2 0.7 1.2 0.7 2.2 0 1 0.7 2.1 1.5 2.4 0.9 0.3 2.1 1.9 2.6 3.6 0.6 1.6 1.6 3 2.3 3 1.5 0 6.6 5.2 6.6 6.7 0 0.6 1.4 1.6 3 2.2 1.7 0.5 3 1.5 3 2 0 0.6 0.7 1.1 1.5 1.1 0.8 0 1.5 0.5 1.5 1 0 0.6 0.7 1 1.5 1 0.8 0 1.5 0.4 1.5 0.8 0 0.4 1.6 1.4 3.5 2.1 1.9 0.7 4 1.8 4.7 2.4 2.2 2.1 25.2 7.7 31.6 7.7 1.7 0 3.2 0.3 3.2 0.8 0 0.4 6.7 0.7 15 0.7 8.2 0 15 -0.3 15 -0.7z m-151.6 -3.8 l2.6 -1 0 -18.3 0 -18.4 -2.5 -1.1 c-1.9 -0.9 -17.5 -1.2 -55.5 -1.2 -29 0 -53.5 -0.3 -54.4 -0.6 -3.4 -1.3 -1.1 -12.4 2.5 -12.4 0.4 0 1.9 -1 3.2 -2.2 1.4 -1.3 6.3 -5.9 11.1 -10.3 4.7 -4.4 8.6 -8.4 8.6 -9 0 -1.3 37.2 -38.5 38.4 -38.5 1.5 0 5.6 -4.2 5.6 -5.6 0 -0.7 0.6 -1.7 1.3 -2.1 0.6 -0.4 1.7 -1.7 2.3 -2.8 0.6 -1.1 2 -2.4 3.2 -3 1.2 -0.5 2.6 -2.2 3.1 -3.7 0.6 -1.6 1.5 -2.8 2.1 -2.8 0.6 0 1.5 -1.1 2 -2.5 0.5 -1.4 1.4 -2.5 2 -2.5 0.5 0 1 -0.7 1 -1.5 0 -0.9 0.7 -1.8 1.5 -2.1 0.8 -0.4 1.5 -1.2 1.5 -2 0 -0.8 0.5 -1.4 1 -1.4 0.6 0 1 -0.6 1 -1.4 0 -0.8 0.7 -1.6 1.5 -2 0.8 -0.3 1.5 -1.4 1.5 -2.5 0 -1.1 0.5 -2.1 1.1 -2.3 0.6 -0.2 1.7 -1.9 2.4 -3.8 0.7 -1.9 2.7 -6.9 4.3 -11 8.7 -21.5 8.2 -42.5 -1.4 -62 -2.6 -5.2 -5.1 -9.6 -5.5 -9.8 -0.5 -0.2 -0.9 -1.2 -0.9 -2.2 0 -1 -0.8 -2 -1.9 -2.3 -1 -0.2 -2.5 -1.7 -3.2 -3.3 -0.8 -1.6 -2.5 -3.4 -3.8 -4 -1.3 -0.7 -2.8 -2 -3.3 -2.8 -0.5 -0.9 -1.6 -1.6 -2.3 -1.6 -0.8 0 -1.5 -0.4 -1.5 -1 0 -0.5 -0.6 -1 -1.4 -1 -0.8 0 -1.6 -0.3 -1.8 -0.7 -0.1 -0.5 -3.7 -2.4 -7.8 -4.3 -4.1 -1.9 -7.6 -3.8 -7.8 -4.2 -0.2 -0.5 -1.2 -0.8 -2.1 -0.8 -1 0 -5.4 -0.9 -9.7 -2 -4.4 -1 -11.6 -2.2 -16.1 -2.6 -4.6 -0.4 -8.3 -1.1 -8.3 -1.5 0 -0.5 -3.8 -0.9 -8.5 -0.9 -5 0 -8.5 0.4 -8.5 1 0 0.6 -2 1 -4.4 1 -5.2 0 -21.6 4 -28.2 6.9 -2.5 1.2 -5.4 2.1 -6.3 2.1 -0.9 0 -2.4 0.9 -3.4 2 -0.9 1.1 -2.4 2 -3.2 2 -0.8 0 -1.5 0.5 -1.5 1 0 0.6 -0.7 1 -1.5 1 -0.8 0 -1.5 0.5 -1.5 1 0 0.6 -0.6 1 -1.3 1 -0.7 0 -1.8 0.9 -2.5 2 -0.7 1.1 -1.8 2 -2.5 2 -1.7 0.1 -4.8 2.9 -7.7 7 -1.3 1.9 -2.9 4 -3.5 4.6 -2.9 3.3 -4.4 5.6 -8.2 13.4 -4.6 9.4 -7.3 18.6 -7.3 24.9 0 2.3 -0.4 4.1 -1 4.1 -2.3 0 -0.7 4.1 2.7 6.9 l3.8 3.1 18.2 0 c10.1 0 18.3 -0.3 18.3 -0.8 0 -0.4 1 -1.2 2.3 -1.7 1.6 -0.8 2.6 -2.5 3.6 -7 0.8 -3.3 1.8 -6.1 2.3 -6.3 0.4 -0.2 0.8 -1.5 0.8 -2.8 0 -2.4 1.5 -6.3 2.9 -7.4 0.3 -0.3 1.2 -1.7 2 -3.2 0.7 -1.4 2.2 -2.9 3.3 -3.1 1.1 -0.3 2.2 -1.5 2.5 -2.6 0.3 -1.2 1.2 -2.1 1.9 -2.1 0.8 0 1.7 -0.7 2 -1.5 0.4 -0.8 1.5 -1.5 2.5 -1.5 1 0 1.9 -0.4 1.9 -1 0 -1.3 8.5 -3.7 16.1 -4.5 7 -0.7 22.2 0.9 22.7 2.5 0.2 0.6 1.4 1 2.7 1 1.3 0 3 0.7 3.9 1.5 0.8 0.8 1.9 1.5 2.5 1.5 0.6 0 1.1 0.5 1.1 1.1 0 1.4 4.7 5.9 6.1 5.9 0.5 0 0.9 0.5 0.9 1.1 0 0.6 0.7 1.7 1.5 2.5 2.9 3 5.3 13.6 5.4 23.9 0 10 -2.3 23.5 -4 23.5 -0.5 0 -0.9 0.9 -0.9 2 0 2.4 -3.1 9 -4.2 9 -0.4 0 -0.8 0.7 -0.8 1.5 0 0.8 -0.4 1.5 -1 1.5 -0.5 0 -1 0.7 -1 1.5 0 0.8 -0.4 1.5 -1 1.5 -0.5 0 -1 0.6 -1 1.4 0 0.8 -1.3 2.8 -3 4.4 -1.6 1.7 -3 3.5 -3 4 0 0.5 -1.1 1.7 -2.5 2.6 -1.4 0.9 -2.5 2.2 -2.5 2.8 0 1.3 -3.9 5.8 -5 5.8 -0.9 0 -26 24.8 -26 25.7 0 1 -4.2 5.3 -5.3 5.3 -1.4 0 -10.9 8.8 -12.1 11.3 -1 1.8 -4.2 4.2 -8.3 6.3 -0.7 0.3 -1.3 1.2 -1.3 1.8 0 1.6 -3.9 5.3 -8.1 7.5 -1.8 1 -4.1 3.1 -4.9 4.7 -0.9 1.6 -2.8 3.5 -4.2 4.1 -1.4 0.7 -3.7 2.9 -5.2 4.8 -1.5 1.9 -4.1 4.1 -5.9 5 -1.8 0.8 -3.7 2.5 -4.2 3.7 -0.6 1.3 -2 2.8 -3.3 3.4 -1.3 0.6 -3 2.1 -3.7 3.2 -0.8 1.1 -2.6 2.3 -4 2.6 -1.4 0.4 -2.5 1.2 -2.5 2 0 0.7 -0.9 2.1 -2 3.1 -1.8 1.7 -2 3.1 -2 17.7 0 16.2 0.3 17.6 4 19.1 2.7 1 179.7 0.8 182.4 -0.3z"/>
  <path d="M321.5 311.6 c-2.7 -0.8 -5.1 -1.9 -5.3 -2.5 -0.2 -0.6 -0.9 -1.1 -1.5 -1.1 -1.5 0 -6.7 -5.4 -6.7 -6.9 0 -0.6 -0.4 -1.1 -0.8 -1.1 -0.5 0 -1.5 -1.9 -2.3 -4.2 -1.1 -3.5 -1.4 -13.4 -1.4 -50.6 0 -42.7 0.1 -46.4 1.7 -47.3 1 -0.5 2 -2.4 2.3 -4.2 0.4 -2 1.5 -3.7 2.8 -4.2 1.2 -0.6 2.7 -2 3.2 -3.3 0.6 -1.3 2.1 -2.6 3.5 -2.9 1.4 -0.3 2.8 -1.1 3.2 -1.7 1.2 -1.8 20.7 -1.9 22.4 -0.1 0.8 0.8 3 1.7 4.9 2.1 1.9 0.3 3.5 1 3.5 1.5 0 0.4 1.9 2.7 4.2 5.1 6.7 6.9 6.8 7.5 6.8 57 0 28.5 -0.3 43.8 -1 43.8 -0.5 0 -1 1.1 -1 2.5 0 2.7 -1.9 7.5 -3.1 7.5 -1.1 0 -6.9 5.7 -6.9 6.8 0 1.9 -8.6 4.5 -16 4.8 -4.5 0.2 -9.5 -0.2 -12.5 -1z"/>
  <path d="M679.5 311.8 c-1.6 -0.6 -3.4 -1.7 -3.8 -2.4 -0.4 -0.8 -1.6 -1.4 -2.6 -1.4 -1.9 0 -6.1 -4 -6.1 -5.8 0 -0.7 -0.4 -1.2 -1 -1.2 -0.5 0 -1 -0.9 -1 -2 0 -1.1 -0.4 -2 -0.9 -2 -1.2 0 -3.1 -8.9 -3.1 -14.5 0 -2.5 0.5 -4.5 1 -4.5 0.6 0 1 -10.7 1 -30 0 -21.8 -0.3 -30 -1.1 -30 -1.9 0 -0.6 -17.5 1.4 -19.5 0.9 -0.8 1.9 -3.1 2.3 -5 0.3 -1.9 1 -3.5 1.5 -3.5 1.4 0 4.9 -3.3 4.9 -4.7 0 -0.7 0.7 -1.3 1.5 -1.3 0.8 0 1.5 -0.4 1.5 -0.9 0 -0.5 3 -1.7 6.6 -2.7 5.8 -1.5 7.7 -1.6 14.7 -0.6 5.2 0.8 8.4 1.7 9 2.7 0.4 0.8 1.6 1.5 2.6 1.5 1 0 2.1 0.9 2.4 2 0.3 1.1 1.7 2.4 3.1 3 1.6 0.6 2.6 1.7 2.6 2.9 0 1.1 0.8 2.7 1.8 3.7 1.2 1.3 1.7 3.4 1.7 7.6 0 3.2 0.3 5.8 0.8 5.8 0.4 0 0.7 8.3 0.7 18.5 0 11.7 -0.4 18.5 -1 18.5 -0.6 0 -1 3.2 -1 7.5 0 4.3 0.4 7.5 1 7.5 0.6 0 1 1.6 1 3.5 0 2 -0.5 3.5 -1.2 3.5 -0.8 0 -0.9 3.1 -0.5 11.4 0.5 9 0.3 12.5 -0.9 16 -0.9 2.5 -2 4.6 -2.5 4.6 -0.5 0 -0.9 0.6 -0.9 1.4 0 0.7 -0.9 1.6 -2.1 1.9 -1.1 0.3 -2.3 1.5 -2.6 2.6 -0.3 1.2 -1.2 2.1 -1.9 2.1 -0.8 0 -1.4 0.4 -1.4 1 0 3.1 -20.7 5.2 -27.5 2.8z"/>
 </g>
 <g fill="#b4772f">
  <path d="M176.3 764 c0 -2.5 0.2 -3.5 0.4 -2.2 0.2 1.2 0.2 3.2 0 4.5 -0.2 1.2 -0.4 0.2 -0.4 -2.3z"/>
  <path d="M847.5 583.5 c0 -99 0.1 -139.6 0.2 -90.3 0.2 49.3 0.2 130.3 0 180 -0.1 49.7 -0.2 9.3 -0.2 -89.7z"/>
  <path d="M176.2 730 c0 -1.9 0.2 -2.7 0.5 -1.7 0.2 0.9 0.2 2.5 0 3.5 -0.3 0.9 -0.5 0.1 -0.5 -1.8z"/>
  <path d="M604.5 730.9 c0.5 -0.7 -0.7 -0.8 -4 -0.3 -3.6 0.5 -4.6 0.4 -4 -0.5 0.5 -0.9 -0.3 -1 -3 -0.5 -2.4 0.4 -3.6 0.3 -3.2 -0.3 0.4 -0.6 -0.3 -0.8 -1.8 -0.5 -1.5 0.2 -2.5 0 -2.5 -0.7 0 -0.7 -0.9 -0.9 -2.6 -0.5 -1.8 0.5 -2.5 0.3 -2 -0.4 0.4 -0.6 -0.2 -0.8 -1.6 -0.4 -1.3 0.3 -1.9 0.1 -1.5 -0.5 0.5 -0.7 -0.1 -0.9 -1.5 -0.5 -1.6 0.4 -1.9 0.2 -1.3 -0.8 0.5 -0.9 0.4 -1.1 -0.4 -0.6 -1.6 1 -5.3 -0.3 -4.5 -1.6 0.4 -0.7 0.2 -0.8 -0.4 -0.4 -1.4 0.8 -9.4 -3.3 -8.7 -4.4 0.3 -0.4 -0.3 -0.7 -1.3 -0.6 -0.9 0 -1.6 -0.5 -1.4 -1.2 0.1 -0.8 -0.2 -1.1 -0.7 -0.8 -2 1.3 -18.8 -14.5 -17.5 -16.5 0.2 -0.5 -0.7 -1.6 -2.1 -2.5 -1.5 -1 -2.4 -2.3 -2.1 -3.1 0.3 -0.8 0.2 -1.2 -0.3 -0.9 -0.8 0.6 -7.3 -10.5 -7 -12.1 0.4 -2.1 -0.2 -4.4 -1 -3.9 -1.2 0.8 -2.2 -3.4 -1.4 -6.3 0.4 -1.7 0.3 -2.2 -0.5 -1.7 -0.9 0.5 -1.1 -0.8 -0.9 -4.5 0.3 -4.2 0.9 -5.6 3 -7.5 1.6 -1.4 3.4 -2 4.7 -1.7 1.1 0.3 2 0 2 -0.6 0 -0.8 6.1 -1 21.3 -0.9 l21.2 0.2 -21 0.6 -21 0.6 22 0.1 c19.9 0.2 22 0.3 21.7 1.8 -0.2 1.1 0.1 1.4 0.9 0.9 0.9 -0.5 1 -0.2 0.6 0.9 -0.3 0.8 0.1 2.1 0.9 2.8 0.8 0.7 1.3 1.8 1 2.6 -0.3 0.7 -0.1 1.3 0.5 1.3 0.6 0 0.8 0.4 0.5 0.9 -0.3 0.5 0.1 1.2 1 1.5 1 0.4 1.4 1.2 1 2.3 -0.4 1 -0.4 1.4 0 1 0.8 -0.8 6 6.3 5.6 7.6 -0.1 0.5 0.1 0.6 0.6 0.4 0.4 -0.3 1.9 0.4 3.2 1.5 1.4 1.1 1.8 1.6 1 1.2 -0.9 -0.4 -1.2 -0.3 -0.7 0.2 0.5 0.5 1.6 0.9 2.5 0.9 0.9 0 1.6 0.5 1.5 1.1 -0.1 0.7 0.3 1.1 1 1.1 3.1 -0.1 4.8 0.4 4.3 1.2 -0.3 0.5 0 0.9 0.7 0.8 3.3 -0.1 4.8 0.4 4.1 1.4 -0.4 0.8 0.3 0.9 2.6 0.4 1.8 -0.4 3 -0.3 2.7 0.1 -0.3 0.5 3.5 0.9 8.4 0.9 4.9 0 8.9 -0.3 8.9 -0.8 0 -0.4 1.1 -0.5 2.5 -0.1 1.6 0.4 2.5 0.2 2.5 -0.6 0 -0.7 0.8 -0.9 2 -0.5 1.2 0.4 2 0.2 2 -0.5 0 -0.7 0.7 -0.9 1.6 -0.6 0.9 0.4 1.3 0.2 0.8 -0.5 -0.4 -0.7 0 -0.9 1.4 -0.5 1.3 0.5 2.2 0.1 2.6 -1 0.4 -1 1.2 -1.4 2.3 -1 1 0.4 1.4 0.4 1.1 0 -0.4 -0.3 2 -2.6 5.3 -5.1 3.2 -2.5 5.9 -4.8 5.9 -5.1 0.1 -0.4 1.2 -2 2.6 -3.7 1.5 -1.6 2.3 -2.4 1.9 -1.6 -0.6 0.9 -0.4 1.2 0.4 0.7 0.6 -0.4 0.9 -1.2 0.5 -1.7 -0.3 -0.6 0.3 -1.9 1.5 -3 1.9 -1.8 2.5 -3.2 2.2 -5.1 0 -0.5 0.3 -0.8 0.9 -0.8 0.5 0 0.6 -0.7 0.3 -1.7 -0.4 -1 -0.2 -1.4 0.4 -1 0.7 0.5 0.9 -0.1 0.5 -1.5 -0.3 -1.4 -0.1 -1.9 0.6 -1.4 0.8 0.5 1 0.2 0.6 -0.8 -0.3 -0.9 -0.1 -1.6 0.5 -1.6 0.7 0 0.9 -1 0.5 -2.6 -0.5 -1.8 -0.3 -2.5 0.4 -2 0.7 0.4 0.9 -0.6 0.6 -3.1 -0.4 -2.3 -0.2 -3.3 0.3 -2.6 0.5 0.7 0.8 -2 0.8 -6.7 0 -4.4 -0.4 -7.6 -0.9 -7.2 -0.5 0.3 -0.6 -0.9 -0.3 -2.7 0.5 -2.3 0.3 -3 -0.5 -2.5 -0.8 0.5 -0.9 -0.1 -0.4 -2 0.5 -2 0.4 -2.6 -0.5 -2 -0.9 0.5 -1 0.2 -0.6 -0.9 0.4 -1 0.2 -1.7 -0.4 -1.7 -0.6 0 -0.8 -0.7 -0.5 -1.6 0.4 -1 0.2 -1.3 -0.6 -0.8 -0.8 0.5 -0.9 0.1 -0.4 -1.2 0.4 -1 0.4 -1.5 0 -1.1 -0.4 0.4 -2.2 -1.6 -4.1 -4.3 -1.8 -2.7 -4.5 -5.7 -5.8 -6.6 -1.4 -0.9 -2.2 -2.1 -1.8 -2.7 0.3 -0.5 0.2 -0.7 -0.4 -0.4 -1.3 0.8 -6.5 -2.7 -5.6 -3.8 0.5 -0.4 0.3 -0.5 -0.4 -0.2 -1.4 0.9 -4.5 -0.2 -3.8 -1.3 0.3 -0.5 -0.5 -0.6 -1.7 -0.2 -1.3 0.3 -1.9 0.1 -1.5 -0.5 0.4 -0.6 -0.4 -0.8 -2.1 -0.6 -2.1 0.4 -2.4 0.2 -1.2 -0.6 1.1 -0.8 0.7 -0.9 -1.9 -0.4 -2 0.3 -3.2 0.2 -2.9 -0.3 0.4 -0.5 -3.8 -0.9 -9.8 -0.9 -5.7 0 -10.4 0.4 -10.4 0.9 0 0.4 -1.1 0.5 -2.5 0.2 -1.6 -0.4 -2.5 -0.2 -2.5 0.5 0 0.6 -0.7 0.8 -1.6 0.5 -1 -0.4 -1.3 -0.2 -0.8 0.6 0.5 0.7 0 0.9 -1.4 0.6 -1.2 -0.4 -2 -0.2 -1.7 0.2 0.5 0.8 -2.5 2.3 -5 2.6 -2.2 0.2 -4.5 1.7 -4 2.5 0.6 0.9 -2.9 3.1 -3.7 2.4 -0.2 -0.3 -1.8 1 -3.4 2.8 l-2.9 3.2 3.1 -2.5 c1.6 -1.4 0.7 -0.3 -2 2.4 -2.8 2.8 -4.4 4.6 -3.6 4.1 1.3 -0.8 1.3 -0.7 0.1 1.1 -0.8 1 -2.6 3.1 -4 4.7 l-2.5 2.7 -22 0 c-22.1 0 -23 -0.1 -25.3 -3 -1 -1.4 1.3 -1.5 21.6 -1.2 l22.8 0.4 3.8 -4.8 c7.2 -9.1 13.8 -15.4 16.2 -15.4 1.3 0 2.3 -0.6 2.3 -1.4 0 -1.8 7.9 -5.1 15.4 -6.5 8.2 -1.5 21.8 -1.3 29.9 0.4 23.3 4.9 37.1 25.2 35.3 52 -0.8 12.6 -4.4 25.5 -7.2 25.5 -0.9 0 -1.4 1.1 -1.4 2.8 0 6.3 -11.9 18.6 -22.3 23.1 -5.9 2.5 -19.2 5.1 -26.5 5.1 -22.5 0 -36.9 -8.9 -44.2 -27.5 -1.3 -3.3 -2.8 -6.6 -3.3 -7.2 -0.7 -1 -6 -1.3 -20.5 -1.3 l-19.5 0 -3.5 2.6 c-3.1 2.4 -3.4 3 -2.8 6.3 1.5 8.9 1.9 10.6 2.6 11.1 0.4 0.3 1.8 2.5 3 5 1.2 2.5 3.1 5.7 4.1 7.2 1.1 1.4 1.9 3.6 1.9 4.7 0 1.2 0.5 2.1 1.1 2.1 0.6 0 3.9 2.9 7.4 6.5 15 15.1 34 23.4 58.3 25.2 11.2 0.8 11.1 4.2 -0.1 4.3 -2.5 0 -3.6 -0.4 -3.2 -1.1z m-54.5 -22.2 c0 -0.2 -1.5 -1.6 -3.2 -3.3 l-3.3 -2.9 2.9 3.3 c2.8 3 3.6 3.7 3.6 2.9z m21.8 -94.4 c-5.4 -0.2 -14.2 -0.2 -19.5 0 -5.4 0.1 -1 0.3 9.7 0.3 10.7 0 15.1 -0.2 9.8 -0.3z"/>
  <path d="M632.8 731.3 c-1 -0.2 -1.8 -1.1 -1.8 -1.9 0 -1 1.3 -1.4 4.8 -1.4 12.2 0 34 -5.3 45.5 -11.1 11.1 -5.6 25.6 -18.8 32.2 -29.2 1.7 -2.7 3.8 -4.7 4.8 -4.7 1.2 0 1.7 -0.8 1.7 -3 0 -1.7 0.8 -4.7 1.9 -6.8 4.4 -8.7 9.1 -29 9.1 -39 0 -8 -2.6 -21.9 -5.6 -29.9 -2.9 -7.8 -9.1 -18.9 -14 -25 -1.9 -2.3 -3.4 -4.6 -3.4 -5.2 0 -0.6 -0.6 -1.1 -1.3 -1.1 -0.8 0 -2.4 -1.2 -3.8 -2.6 -3.1 -3.4 -11 -9.3 -17.4 -12.9 -2.7 -1.6 -5.2 -3.2 -5.5 -3.6 -0.3 -0.3 -1.8 -0.9 -3.5 -1.2 -1.6 -0.3 -6.4 -1.5 -10.5 -2.7 -16.1 -4.5 -38.7 -3.7 -54.4 2.1 -4.4 1.6 -9 2.9 -10.3 2.9 -1.3 0 -2.3 0.6 -2.3 1.3 0 0.7 -2.1 3 -4.7 5.2 -2.7 2.1 -5.2 4.5 -5.6 5.2 -0.4 0.7 -2.4 1.3 -4.4 1.3 l-3.6 0 0.6 -4.7 c0.9 -8.6 5.6 -57.7 5.9 -61.8 l0.3 -4 57.6 -0.5 c53.1 -0.5 57.8 -0.6 59.6 -2.2 1.1 -1 2.5 -1.8 3.1 -1.8 0.9 0 1.2 -4.5 1.2 -16.4 l0 -16.4 -3.1 -2.6 -3.1 -2.6 -74.8 0 -74.9 0 -2.7 2.3 c-2.4 2.1 -2.7 3.3 -3.5 11.8 -0.8 8.9 -9 91.4 -12.4 124.9 -2 19.7 -2.8 21.2 -3.9 7.5 -0.5 -5.8 -0.4 -7.6 0.4 -6.5 0.7 1.1 0.9 -0.4 0.5 -5.5 -0.4 -5.1 -0.3 -6.5 0.5 -5 0.7 1.5 0.8 0.2 0.4 -4.5 -0.4 -4.7 -0.2 -6.1 0.5 -5 0.8 1.1 0.9 -0.3 0.6 -5 -0.4 -4.7 -0.3 -5.9 0.5 -4.5 0.7 1.4 0.8 -0.1 0.5 -5.5 -0.4 -5.3 -0.2 -6.9 0.5 -5.5 0.7 1.4 0.8 0.1 0.4 -4.5 -0.4 -4.9 -0.3 -6.1 0.6 -5 0.8 1.1 0.9 -0.1 0.5 -5 -0.5 -4.9 -0.4 -6.1 0.5 -5 0.8 1.1 0.9 -0.1 0.5 -5 -0.5 -4.9 -0.4 -6.1 0.5 -5 0.8 1.1 0.9 -0.1 0.5 -5 -0.5 -4.9 -0.4 -6.1 0.5 -5 0.8 1.1 0.9 -0.1 0.5 -5 -0.4 -4.7 -0.2 -5.9 0.5 -4.5 0.7 1.4 0.8 0 0.4 -5 -0.4 -5.2 -0.3 -6.6 0.6 -5.5 0.8 1.1 0.9 -0.2 0.5 -5 -0.5 -5 -0.4 -6.1 0.5 -5 0.8 1.1 1 0 0.5 -5 -0.4 -4.7 -0.3 -6.1 0.4 -5 0.8 1.1 1 -0.6 0.6 -6 -0.3 -5.4 -0.2 -6.8 0.5 -5 0.8 2.1 0.9 1.8 0.7 -2 -0.2 -3.4 0.2 -4.9 1.8 -6.5 1.2 -1.1 1.4 -1.5 0.5 -1 -0.9 0.6 -0.5 0 0.8 -1.2 l2.3 -2.3 77.7 0 c71.6 0 78 0.1 80.2 1.7 4.8 3.3 4.9 4 5 21.2 0 13.6 -0.3 17.1 -1.7 20.2 -3.4 7.2 -0.6 6.9 -63.7 6.9 l-56.6 0 -0.1 4.8 c0 3.7 -0.2 4.3 -1 2.7 -0.6 -1.3 -0.7 0.5 -0.3 5.5 0.4 5.5 0.2 7.1 -0.6 6 -0.7 -1.1 -0.9 0.4 -0.5 5.5 0.4 5 0.3 6.4 -0.5 5 -0.7 -1.4 -0.8 0 -0.4 5 0.4 5.2 0.3 6.6 -0.6 5.5 -0.8 -1.1 -0.9 0.1 -0.5 5 0.4 4.8 0.3 6 -0.5 4.5 -0.8 -1.5 -0.9 -0.3 -0.5 4.5 0.4 4.6 0.3 6.1 -0.5 5 -0.8 -1.2 -1 -1.1 -1 0.6 0 1.2 0.6 2.1 1.5 2.1 0.8 0 1.5 -0.6 1.5 -1.3 0 -1.2 3.7 -3.9 5 -3.7 0.3 0.1 0.7 -0.1 1 -0.4 0.3 -0.4 -0.1 -0.3 -0.7 0.1 -2.4 1.4 -1.3 -0.2 1.3 -1.9 1.5 -0.9 2.3 -1.2 1.9 -0.5 -1 1.6 4.7 -2 6.1 -3.9 0.6 -0.8 1.8 -1.1 2.8 -0.8 1.1 0.5 1.5 0.3 1 -0.5 -0.5 -0.8 -0.2 -0.9 0.9 -0.5 1 0.4 1.7 0.2 1.7 -0.4 0 -0.6 0.7 -0.9 1.5 -0.5 0.8 0.3 1.5 0.1 1.5 -0.5 0 -0.6 0.9 -0.8 2 -0.4 1.1 0.3 2 0.2 2 -0.3 0 -0.6 0.9 -0.8 2 -0.5 1.1 0.3 2 0 2 -0.6 0 -0.7 0.9 -0.9 2.5 -0.5 1.6 0.4 2.5 0.2 2.5 -0.6 0 -0.8 1.2 -1 4 -0.5 2.6 0.4 4 0.3 4 -0.4 0 -0.7 3.3 -1.1 9.8 -1 6.9 0.1 9 0.4 7.2 1 -1.7 0.6 -0.4 0.7 4.3 0.4 4.8 -0.3 6.6 -0.1 6.1 0.7 -0.5 0.7 0.4 0.9 3.1 0.4 2.8 -0.6 3.5 -0.4 2.9 0.5 -0.5 0.9 0 1 2 0.5 1.6 -0.4 2.6 -0.2 2.6 0.4 0 0.7 0.8 0.9 2.1 0.5 1.6 -0.5 1.9 -0.4 1.4 0.5 -0.5 0.9 -0.1 1 1.5 0.5 1.4 -0.5 2 -0.3 1.6 0.3 -0.4 0.6 0.2 0.8 1.6 0.4 1.4 -0.3 1.9 -0.2 1.4 0.6 -0.6 1.1 1.3 1.7 3.7 1.3 1.7 -0.3 8.6 4.2 8 5.2 -0.3 0.6 -0.1 0.7 0.5 0.3 1.5 -0.9 6.4 2.3 5.5 3.7 -0.3 0.5 -0.1 0.7 0.4 0.4 1.3 -0.8 12.5 8.1 11.8 9.3 -0.3 0.4 0.6 1.5 1.9 2.4 2.7 1.7 7.8 8.4 5.5 7.2 -0.7 -0.5 -0.1 0.3 1.5 1.6 1.9 1.6 2.6 2.9 2.1 3.8 -0.5 0.8 -0.4 1.1 0.1 0.7 1.2 -0.7 6.7 8.9 5.9 10.3 -0.3 0.6 -0.1 1 0.5 1 0.7 0 0.9 0.7 0.6 1.6 -0.3 0.8 -0.2 1.2 0.4 0.9 0.6 -0.3 1.1 0.2 1.2 1.2 0 1 0.2 2.3 0.2 3 0.1 0.6 0.4 1.5 0.8 1.8 0.4 0.4 0.4 1.3 0.1 2.1 -0.3 0.8 0 1.4 0.7 1.4 0.7 0 0.9 0.8 0.5 2 -0.4 1.2 -0.2 2 0.6 2 0.8 0 0.9 1 0.5 3 -0.4 2.1 -0.2 2.9 0.5 2.5 0.7 -0.5 0.8 1.4 0.5 5.7 -0.4 4.2 -0.3 5.5 0.3 3.8 0.7 -1.8 0.9 -0.1 0.9 6 0 6.1 -0.2 7.8 -0.9 6 -0.6 -1.7 -0.7 -0.4 -0.4 4 0.4 4.8 0.3 6.1 -0.5 5 -0.8 -1.1 -0.9 -0.5 -0.4 2.4 0.5 2.9 0.4 3.7 -0.5 3.2 -0.9 -0.6 -1 0 -0.5 2 0.5 1.9 0.4 2.5 -0.5 2 -0.8 -0.6 -1 0 -0.5 1.8 0.3 1.5 0.2 2.6 -0.4 2.6 -0.6 0 -0.8 0.8 -0.5 1.9 0.2 1 -0.2 2.5 -1.1 3.3 -0.8 0.9 -1.2 1.8 -0.9 2.2 0.4 0.3 0.1 0.6 -0.6 0.6 -0.8 0 -1.1 0.7 -0.7 1.5 0.3 0.8 0.1 1.5 -0.5 1.5 -0.6 0 -0.8 0.4 -0.4 0.9 0.7 1.2 -1.5 6.2 -2.5 5.6 -0.8 -0.5 -3.5 4.5 -3.2 5.8 0.6 2.5 -18.1 24.2 -19.9 23.2 -0.4 -0.3 -1.1 0 -1.5 0.6 -0.5 0.8 -0.2 1 0.7 0.5 0.8 -0.4 0.3 0.2 -1 1.3 -1.2 1.2 -2.8 1.8 -3.5 1.4 -0.6 -0.3 -0.8 -0.2 -0.3 0.2 1.4 1.6 -15.4 11.1 -18 10.1 -0.9 -0.4 -1.1 -0.2 -0.7 0.6 0.5 0.7 0 0.9 -1.4 0.6 -1.4 -0.4 -2 -0.2 -1.5 0.5 0.4 0.6 -0.2 0.8 -1.5 0.5 -1.4 -0.4 -2 -0.2 -1.6 0.4 0.4 0.6 -0.1 0.8 -1.4 0.4 -1.1 -0.4 -2.3 -0.2 -2.6 0.3 -0.4 0.6 -1.3 0.8 -2.1 0.4 -0.8 -0.3 -1.5 0 -1.5 0.7 0 0.8 -1 0.9 -3 0.5 -2 -0.4 -3 -0.3 -3 0.5 0 0.9 -1 1.1 -3.2 0.6 -2.5 -0.4 -2.9 -0.3 -1.8 0.5 1.1 0.8 -0.1 0.9 -4.5 0.4 -4.3 -0.4 -5.6 -0.3 -4.5 0.4 1.1 0.8 0.4 1 -3 1 -2.5 -0.1 -5.3 -0.3 -6.2 -0.6z"/>
  <path d="M302.7 729.3 c-0.9 -0.2 -1.5 -0.9 -1.2 -1.4 0.3 -0.5 -0.1 -0.6 -0.9 -0.3 -2.2 0.8 -4.8 -3.8 -4 -7 0.8 -3.3 3 -3.4 3.8 -0.2 0.3 1.4 2 3 4 4 3.1 1.4 12.4 1.6 91.4 1.6 l88 0 3.1 -2.6 3.1 -2.6 0 -16.2 c0 -14.9 -0.2 -16.4 -2 -18.4 -1.2 -1.2 -2.2 -2.3 -2.3 -2.4 -0.1 -0.2 -24.9 -0.5 -55.2 -0.8 l-55 -0.5 -0.3 -3.4 c-0.3 -2.6 0.3 -4 2.4 -6.2 1.5 -1.6 3.6 -2.9 4.6 -2.9 1 0 1.8 -0.7 1.8 -1.6 0 -1.6 61.7 -63.4 63.2 -63.4 0.5 0 0.8 -0.5 0.8 -1 0 -0.6 3.8 -5.6 8.4 -11.2 4.7 -5.6 11.1 -14.6 14.3 -20 3.2 -5.3 6.4 -9.8 7.1 -9.8 0.6 0 1.2 -1.2 1.2 -2.8 0 -1.6 1.1 -6 2.4 -9.8 3.8 -10.7 5 -22.5 3.6 -33.1 -2.2 -15.7 -2.2 -16.3 -1.2 -16.3 1.3 0 2.6 3 2.3 5.3 -0.1 0.9 0.2 1.7 0.7 1.7 0.5 0 0.6 1.4 0.4 3.1 -0.3 1.8 -0.1 2.9 0.4 2.6 0.5 -0.3 0.9 5.3 0.9 12.8 0 7.4 -0.4 12.8 -0.8 12.2 -0.5 -0.7 -0.6 0.2 -0.3 2.1 0.3 2 0.1 3.2 -0.5 3.2 -0.6 0 -0.9 0.9 -0.6 2 0.3 1.1 0.1 2 -0.5 2 -0.6 0 -0.7 1.1 -0.4 2.6 0.4 1.5 0.3 2.3 -0.3 2 -0.5 -0.4 -0.7 0.3 -0.3 1.6 0.4 1.6 0.2 1.9 -0.8 1.3 -0.9 -0.5 -1.1 -0.4 -0.6 0.4 0.9 1.4 -0.2 5.3 -1.4 4.6 -0.7 -0.5 -2.5 4.2 -2.2 5.8 0.1 0.4 -0.3 0.7 -0.9 0.7 -0.5 0 -0.7 0.5 -0.4 1 0.3 0.6 0.1 1 -0.4 1 -0.6 0 -1 0.3 -0.9 0.8 0.4 1.6 -1.4 5.2 -2.4 4.6 -0.6 -0.4 -0.8 -0.3 -0.5 0.3 0.4 0.6 -0.8 3.2 -2.4 5.9 -4.6 7.2 -17.6 23.1 -20.4 25 -1.4 0.9 -2.5 2.2 -2.5 2.8 0 0.7 -13.4 14.4 -29.7 30.5 -32.9 32.3 -40.5 39.6 -38.3 36.6 1.5 -2 1.4 -2 -0.8 -0.1 -2.3 2 -3 3.2 -1.2 2.1 0.6 -0.3 1 -0.1 1 0.4 0 0.8 16.1 1.2 51.8 1.3 l51.7 0.3 -51.5 0.5 -51.5 0.6 54.2 0.1 c49.3 0.2 54.3 0.4 56.1 1.9 1.1 0.9 1.8 2.3 1.5 3 -0.3 0.8 0 1.4 0.6 1.4 0.8 0 1.1 5.2 1.1 17 0 11.9 -0.3 17 -1.1 17 -0.6 0 -0.9 0.9 -0.6 1.9 0.3 1.2 -0.3 2.7 -1.3 3.6 -1.5 1.4 -11.3 1.6 -94.1 1.8 l-92.4 0.2 90.5 0.5 90.5 0.5 -90.5 0.1 c-49.8 0.1 -91.3 0 -92.3 -0.3z m190 -33.5 c-0.1 -4.6 -0.3 -0.9 -0.3 8.2 0 9.1 0.2 12.8 0.3 8.3 0.2 -4.6 0.2 -12 0 -16.5z m-68.2 -62.8 c10.4 -10.4 18.8 -19 18.5 -19 -0.3 0 -9.1 8.6 -19.5 19 -10.4 10.5 -18.8 19 -18.5 19 0.3 0 9.1 -8.5 19.5 -19z"/>
  <path d="M296.7 689.3 c-0.2 -1 0.8 -3.1 2.2 -4.8 1.9 -2.2 2.1 -2.6 0.6 -1.6 -2.4 1.6 0.8 -1.3 14.5 -13.3 31.6 -27.5 74.1 -67.7 87 -82.3 5.2 -5.8 10.6 -11.8 12 -13.2 1.3 -1.4 2.5 -3.1 2.6 -3.8 0.4 -2.2 5.1 -8.3 5.9 -7.5 0.5 0.4 0.5 0.2 0.1 -0.5 -0.9 -1.6 1.4 -6.4 2.7 -5.6 0.6 0.3 0.7 0.1 0.3 -0.6 -0.9 -1.5 0.3 -5.3 1.5 -4.6 0.5 0.3 0.6 -0.1 0.3 -0.9 -0.3 -0.9 -0.1 -1.6 0.5 -1.6 0.7 0 0.9 -1 0.5 -2.6 -0.4 -1.7 -0.3 -2.5 0.3 -2.1 0.6 0.4 0.8 -0.4 0.5 -2 -0.3 -1.4 -0.1 -2.3 0.4 -2 0.5 0.3 0.9 -3.1 0.9 -7.8 0 -4.6 -0.4 -8.1 -0.9 -7.8 -0.5 0.3 -0.7 -0.6 -0.4 -2 0.3 -1.6 0.1 -2.4 -0.5 -2 -0.6 0.4 -0.8 -0.2 -0.5 -1.5 0.4 -1.2 0.2 -2.2 -0.4 -2.2 -0.6 0 -0.7 -0.7 -0.4 -1.6 0.3 -0.8 0.2 -1.3 -0.3 -1 -1.1 0.7 -2.3 -2.2 -1.4 -3.6 0.3 -0.7 0.1 -0.8 -0.5 -0.4 -1.1 0.6 -1.6 -0.6 -1.3 -2.7 0 -0.4 -0.2 -0.6 -0.6 -0.5 -1.1 0.3 -6.9 -5.3 -6.5 -6.3 0.1 -0.5 -0.1 -0.8 -0.5 -0.8 -2 0.3 -3.4 -0.2 -2.8 -1.1 0.4 -0.6 -0.1 -0.7 -1.1 -0.3 -1.2 0.4 -1.5 0.3 -1 -0.5 0.4 -0.8 0.2 -1 -0.7 -0.6 -0.8 0.3 -2.1 -0.2 -2.9 -1 -1 -0.9 -2.4 -1.2 -3.8 -0.9 -1.3 0.3 -2.1 0.2 -1.8 -0.3 0.4 -0.5 -3.6 -0.9 -9.3 -0.9 -5.4 0 -9.9 0.4 -9.9 0.9 0 0.4 -0.9 0.6 -2 0.3 -1.3 -0.3 -1.8 -0.1 -1.3 0.6 0.4 0.6 -0.2 0.8 -1.5 0.5 -1.4 -0.4 -2 -0.2 -1.5 0.5 0.4 0.6 0 0.8 -1 0.4 -0.9 -0.3 -1.8 0.1 -2.1 1 -0.4 0.9 -1.3 1.3 -2.2 0.9 -0.8 -0.3 -1.3 -0.2 -1 0.3 0.6 0.9 -2.2 2.6 -3.7 2.2 -0.5 -0.1 -0.6 0.3 -0.3 0.8 0.4 0.5 -1.2 2.5 -3.4 4.4 -2.2 1.8 -4 4.2 -4 5.1 0 0.9 -0.6 1.9 -1.4 2.2 -0.9 0.3 -1.2 1.2 -0.9 2.1 0.4 0.9 0.2 1.4 -0.3 1.1 -0.5 -0.4 -1 0.6 -1.1 2 0 1.5 -0.6 2.8 -1.2 3 -0.7 0.2 -0.8 1.4 -0.5 2.9 0.5 2 0.4 2.4 -0.6 1.8 -0.9 -0.6 -1.1 -0.4 -0.5 0.4 0.8 1.4 -1.3 6.1 -2.7 6.1 -0.4 0 -0.8 -1.6 -0.8 -3.5 0 -7 5.1 -21.5 7.6 -21.5 0.6 0 1.4 -1.3 1.7 -2.9 0.7 -3.5 8.6 -9.8 15.7 -12.6 6.1 -2.3 24 -3.2 32 -1.5 12 2.5 20.4 9.9 25.1 21.7 3 7.7 3.3 27.5 0.5 36.8 -2.1 7 -7.9 18.4 -11 21.8 -1.1 1.3 -2.7 3.5 -3.5 4.9 -2.5 4.8 -21.6 25.1 -39.2 41.8 -35 33.1 -74.1 68 -76 68 -0.5 0 -0.9 0.9 -0.9 2 0 2.5 -2.7 2.7 -3.3 0.3z m47.9 -45.5 l2.9 -3.3 -3.2 2.9 c-1.8 1.7 -3.3 3.1 -3.3 3.3 0 0.8 0.8 0.1 3.6 -2.9z"/>
  <path d="M301.2 537.8 c-0.7 -0.7 -1.2 -0.9 -1.2 -0.4 0 0.4 -1.1 -0.6 -2.5 -2.2 -2.2 -2.6 -2.5 -3.9 -2.4 -9.8 0.1 -5.3 0.3 -6.3 1 -4.4 0.6 1.8 0.8 1.1 0.4 -2.7 -0.2 -3.2 0 -5.3 0.6 -5.3 0.6 0 0.8 -0.9 0.4 -2 -0.4 -1.2 -0.2 -2 0.5 -2 0.7 0 1 -0.6 0.7 -1.4 -0.3 -0.8 -0.3 -1.7 0.1 -2.1 0.4 -0.4 0.8 -1.1 0.8 -1.6 0.1 -0.5 0.3 -1.2 0.4 -1.6 0.4 -1.3 0.7 -2.7 0.8 -4.1 0.1 -0.7 0.6 -1 1.2 -0.7 0.6 0.3 0.7 -0.1 0.4 -0.9 -0.4 -1 -0.1 -1.6 0.7 -1.6 0.7 0 0.9 -0.3 0.6 -0.7 -0.4 -0.3 0.1 -1.2 1.1 -2 0.9 -0.8 1.1 -1.1 0.3 -0.7 -0.9 0.4 -0.5 -0.8 0.9 -3.4 1.3 -2.3 2.6 -3.9 3 -3.7 0.4 0.2 1.3 -0.8 2.1 -2.3 1.4 -2.7 2 -3.5 9.4 -11.2 5.2 -5.4 15.2 -12.3 16.7 -11.4 0.6 0.4 0.8 0.3 0.5 -0.3 -0.8 -1.3 4.1 -3.6 5.5 -2.7 0.7 0.5 0.8 0.2 0.3 -0.6 -0.6 -1 -0.4 -1.2 0.8 -0.7 1 0.3 1.7 0.2 1.7 -0.4 0 -0.6 0.4 -0.8 0.9 -0.4 0.5 0.3 1.2 0.1 1.6 -0.5 0.4 -0.6 1.1 -0.8 1.6 -0.5 0.5 0.4 0.9 0.1 0.9 -0.5 0 -0.7 0.7 -1 1.5 -0.6 0.8 0.3 1.5 0.1 1.5 -0.5 0 -0.6 0.7 -0.9 1.5 -0.5 0.8 0.3 1.5 0.1 1.5 -0.5 0 -0.6 0.9 -0.8 2 -0.4 1.2 0.4 2 0.2 2 -0.5 0 -0.7 0.8 -1 2 -0.7 1.1 0.3 2 0.1 2 -0.5 0 -0.6 1.1 -0.7 2.5 -0.4 1.5 0.4 2.5 0.2 2.5 -0.5 0 -0.7 1.3 -0.9 4 -0.4 2.6 0.4 4 0.3 4 -0.4 0 -0.7 4.5 -1.1 13.8 -1.1 9.9 0 13.3 0.3 12.2 1.1 -1.1 0.7 0.1 0.9 4.4 0.4 4.5 -0.5 5.6 -0.4 5.1 0.5 -0.6 1 0.3 1.1 4 0.6 3.4 -0.6 4.5 -0.4 4 0.4 -0.5 0.7 0.2 0.9 2.1 0.4 1.9 -0.5 2.5 -0.4 2 0.5 -0.6 0.8 0 1 1.8 0.5 1.7 -0.4 2.6 -0.2 2.6 0.6 0 0.7 0.8 0.9 2.1 0.5 1.6 -0.5 1.9 -0.4 1.4 0.5 -0.5 0.9 -0.2 1 1.3 0.6 1.2 -0.4 2.6 -0.1 3.6 0.9 0.9 0.9 2 1.3 2.6 1 0.5 -0.3 1 -0.1 1 0.5 0 0.6 0.4 0.8 1 0.5 1.2 -0.8 13.1 5.5 12.5 6.5 -0.3 0.4 0.3 0.7 1.3 0.6 0.9 0 1.6 0.5 1.4 1.2 -0.1 0.8 0.2 1.1 0.8 0.7 1.4 -0.9 16.4 14 15.5 15.4 -0.4 0.7 -0.1 1 0.7 0.9 0.8 -0.2 1.2 0.4 1 1.5 -0.2 0.9 0.4 2 1.3 2.3 1.9 0.8 5.7 7.9 6.1 11.7 0.3 2 -0.1 2.7 -1.4 2.7 -1.8 0 -7.2 -9.4 -7.2 -12.5 0 -0.8 -0.6 -1.5 -1.2 -1.6 -0.7 0 -3.1 -2.4 -5.4 -5.2 -10 -12.9 -25.7 -21.9 -46.9 -26.9 -12.1 -2.8 -38.5 -3.6 -49.5 -1.4 -20.5 4.1 -37.8 12.4 -48.5 23.5 -2.1 2.3 -4.4 4.1 -5.1 4.1 -0.6 0 -1.5 1.1 -1.8 2.5 -0.4 1.6 -1.3 2.5 -2.6 2.5 -1.3 0 -2 0.7 -2 2 0 1.1 -1.1 3.8 -2.4 5.9 -6.2 9.8 -10.6 24.3 -10.6 35.2 0 6.6 0 6.7 3.1 7.3 1.7 0.3 12.8 0.6 24.5 0.6 13.6 0 21.4 0.4 21.4 1 0 0.6 -0.7 1 -1.5 1 -0.8 0 -1.5 0.5 -1.5 1 0 1.5 -42.3 1.3 -43.8 -0.2z"/>
  <path d="M489.3 526 c0 -2.5 0.2 -3.5 0.4 -2.2 0.2 1.2 0.2 3.2 0 4.5 -0.2 1.2 -0.4 0.2 -0.4 -2.3z"/>
  <path d="M847.2 396.9 l-0.2 -6.7 -335.5 0.2 -335.6 0.1 0.3 -58.5 0.3 -58.5 2.8 -8 c3.2 -9.1 8.6 -18.7 10 -17.8 0.6 0.3 0.7 0.2 0.4 -0.4 -0.9 -1.4 6.2 -9.5 7.5 -8.7 0.7 0.4 0.8 0.2 0.4 -0.4 -1.6 -2.6 21.4 -16.2 25 -14.8 0.8 0.3 1.3 0.2 1 -0.3 -0.6 -0.9 5.4 -2.5 6.2 -1.6 0.3 0.3 -0.3 0.5 -1.4 0.6 -1.8 0 -1.8 0.1 0.1 0.9 3 1.3 3.4 1.2 2.8 -1 -0.5 -1.9 0 -2 12 -2 9.1 0 12.7 0.3 13 1.3 0.4 0.9 0.8 0.8 1.6 -0.3 1 -1.3 1.1 -1.3 1.1 0 0 1.2 0.2 1.2 0.9 0.2 0.6 -0.9 2.7 -1.3 6.9 -1.1 3.4 0.1 6.5 0 6.8 -0.4 0.3 -0.3 1.2 -0.3 2 0 0.8 0.3 1.7 -0.2 2 -1.1 1.9 -5 2.4 1.6 2.4 33.7 0 39.1 0.3 41.6 6.5 54.3 6 12.3 16.1 21.5 29.1 26.4 11.2 4.1 19.9 4.2 32.4 0.3 14.2 -4.5 28.5 -18.8 33.8 -34.1 l2.7 -7.7 0.3 -37.2 c0.3 -36.7 0.3 -37.2 2.3 -35.5 1 0.9 1.9 2.2 1.9 2.9 0 0.7 0.7 1 1.6 0.6 1.1 -0.4 1.2 -0.8 0.4 -1.3 -1.9 -1.2 1.7 -1.5 11.5 -1.1 5.9 0.2 8.3 0.6 7 1.1 -1.9 0.8 -1.9 0.9 0.2 0.9 1.2 0.1 2.3 -0.4 2.5 -0.9 0.4 -1.4 171.2 -1.4 171.6 0 0.2 0.6 0.8 1 1.3 1 0.6 0 0.7 -0.5 0.4 -1 -0.4 -0.6 3.7 -1 11.4 -1 7.4 0 12.1 0.4 12.1 1 0 0.6 0.5 1 1.1 1 0.5 0 0.7 -0.5 0.4 -1 -0.4 -0.7 3 -1 9.7 -1 12.7 -0.1 15.1 -0.3 15.6 -1.8 0.2 -0.7 0.8 -1.2 1.3 -1.2 0.5 0 0.9 14.2 0.9 34.3 0 37.5 0.6 43.1 5.8 54.1 7.6 16 21.6 26.9 38.9 30.2 6.3 1.2 8.3 1.2 14.9 -0.1 20.1 -3.8 35.2 -17.1 43 -37.5 l2.8 -7.5 0.4 -35.7 c0.3 -30.1 0.6 -35.8 1.8 -35.8 0.8 0 1.4 0.6 1.4 1.3 0 0.9 1.2 1.4 3.4 1.4 2.7 0 3.3 -0.4 2.8 -1.6 -0.5 -1.3 -0.3 -1.4 1 -0.4 0.8 0.7 1.7 1.1 1.9 0.8 1.1 -1 27.3 -0.7 27.7 0.4 0.2 0.6 1.6 1.1 3 1 l2.7 -0.1 -2.5 -0.8 c-2.3 -0.7 -2.3 -0.8 0.9 -0.9 2.1 -0.1 3.8 0.5 4.6 1.6 0.7 0.9 2.3 1.8 3.6 1.9 2.1 0.2 2 0.1 -0.6 -1.1 -4 -1.9 -2 -1.8 4.5 0.1 4 1.2 5 1.8 3.9 2.6 -1 0.7 -0.8 0.8 0.9 0.3 3.7 -1.1 17.6 7.8 19.3 12.2 0.5 1.3 1.4 2.3 2 2.3 0.8 0 0.7 -0.5 -0.2 -1.7 -0.7 -1 0.4 -0.2 2.4 1.6 2 1.9 3.7 4.3 3.7 5.2 0 1 0.5 2.1 1.2 2.5 0.7 0.4 0.8 0.3 0.4 -0.4 -0.4 -0.7 -0.5 -1.2 -0.3 -1.2 0.9 0 6.6 9.5 8.2 13.5 1.4 3.5 1.4 3.8 0 2.1 -1.5 -1.9 -1.5 -1.9 -1.5 0.2 0 1.5 0.6 2.2 1.9 2.2 1.4 0 2.3 1.5 3.7 6.7 1.7 6.2 1.9 12 2.2 61.8 0.2 30.3 0.1 58.6 0 63 l-0.4 8 -0.2 -6.6z m-226.4 -175.6 c-1 -0.2 -2.6 -0.2 -3.5 0 -1 0.3 -0.2 0.5 1.7 0.5 1.9 0 2.7 -0.2 1.8 -0.5z"/>
  <path d="M176.3 396 c0 -2.5 0.2 -3.5 0.4 -2.2 0.2 1.2 0.2 3.2 0 4.5 -0.2 1.2 -0.4 0.2 -0.4 -2.3z"/>
  <path d="M320.5 311 c-2.8 -1.1 -7 -3.8 -9.2 -6.1 -7.3 -7.2 -7.3 -7.4 -7.3 -58.3 0 -28 0.4 -46.5 1 -48.8 1.6 -5.5 6.8 -11.7 12.5 -14.7 4.5 -2.3 6.1 -2.6 15.5 -2.6 11.3 0 13.6 0.8 20 6.2 4.4 3.6 8 11.6 8 17.6 0 2.6 -0.4 4.7 -1 4.7 -0.5 0 -1 -0.9 -1 -2.1 0 -1.3 -0.4 -1.8 -1.1 -1.3 -0.8 0.5 -1 -0.1 -0.7 -1.9 0.3 -1.6 0.1 -2.4 -0.5 -2 -0.6 0.4 -0.8 -0.2 -0.5 -1.5 0.4 -1.4 0.2 -2 -0.5 -1.5 -0.7 0.4 -0.8 0 -0.4 -1.1 0.4 -0.9 0.3 -1.5 -0.1 -1.2 -0.5 0.3 -1.6 -0.8 -2.6 -2.4 -0.9 -1.7 -2.6 -3.5 -3.7 -4 -1.1 -0.6 -1.7 -1.5 -1.4 -2.1 0.4 -0.5 0.3 -0.8 -0.2 -0.7 -1.2 0.3 -8.3 -2.2 -8.3 -3 0 -0.4 -2.9 -0.7 -6.5 -0.7 -3.6 0 -6.5 0.4 -6.5 0.9 0 0.4 -0.7 0.5 -1.6 0.2 -0.8 -0.3 -1.2 -0.2 -0.9 0.4 0.5 0.9 -1.5 1.5 -3.7 1.1 -0.5 0 -0.8 0.4 -0.8 1 0 0.5 -0.5 0.7 -1.2 0.3 -0.6 -0.4 -0.8 -0.3 -0.5 0.3 0.8 1.3 -4.7 6.6 -5.7 5.6 -0.4 -0.5 -0.6 -0.3 -0.5 0.2 0.5 1.7 -2.4 9.6 -3.1 8.5 -0.3 -0.5 -0.5 1.8 -0.4 5.2 0.2 5.4 0.1 5.7 -0.5 2.3 -0.5 -2.2 -0.8 14.3 -0.9 37 0 24.8 0.3 40 0.9 38.5 0.7 -1.9 0.8 -1.3 0.5 2.4 -0.3 3.4 -0.1 4.4 0.6 3.5 0.7 -1 0.8 -0.8 0.5 0.9 -0.3 1.2 -0.1 2.2 0.5 2.2 0.6 0 0.8 0.7 0.4 1.5 -0.3 0.8 0 1.4 0.7 1.2 0.7 -0.1 1.2 0.7 1.2 1.8 0.1 1.1 0.6 1.9 1.2 1.8 0.6 -0.1 1.9 0.8 2.9 2 1.9 2.1 1.9 2.1 -0.1 0.7 -1.7 -1.2 -1.8 -1.2 -0.7 0 0.7 0.8 2 1.5 3 1.5 0.9 0 1.6 0.5 1.5 1.2 -0.2 0.8 0.4 1 1.4 0.6 1 -0.4 1.4 -0.2 1 0.4 -0.5 0.7 0.1 0.9 1.5 0.5 1.3 -0.3 1.9 -0.1 1.5 0.5 -0.4 0.6 0.3 0.8 1.8 0.5 1.7 -0.3 2.5 0 2.5 0.9 0 1.1 0.2 1.1 1 -0.1 0.6 -1 1 -1.1 1 -0.2 0 0.6 1.1 1.2 2.5 1.2 1.4 0 2.5 -0.5 2.5 -1.1 0 -0.6 0.9 -0.9 2 -0.6 1.1 0.3 2 0.1 2 -0.5 0 -0.6 0.7 -0.7 1.6 -0.4 1 0.4 1.3 0.2 0.8 -0.6 -0.5 -0.8 -0.2 -0.9 1 -0.5 1.1 0.5 1.5 0.3 1 -0.5 -0.5 -0.8 -0.2 -0.9 0.9 -0.5 0.9 0.3 1.6 0.3 1.4 -0.2 -0.3 -1 6.5 -7.6 7.5 -7.3 0.4 0.1 0.4 -0.6 0.1 -1.5 -0.4 -1.1 -0.3 -1.4 0.5 -0.9 0.8 0.5 1 0.1 0.5 -1 -0.5 -1.3 -0.3 -1.5 0.7 -0.9 0.8 0.5 1.1 0.4 0.6 -0.3 -0.9 -1.6 0.4 -6.3 1.6 -5.6 0.6 0.4 0.9 -0.9 0.8 -3.2 -0.3 -6.3 -0.1 -7.4 1.6 -7.4 1.3 0 1.4 1.1 0.8 8.3 -1.5 17.5 -10 25.8 -27.9 27.1 -6.6 0.5 -8.9 0.3 -13 -1.4z"/>
  <path d="M676.5 310.1 c-5.9 -2.6 -12 -10.1 -13.7 -16.4 -1.8 -7.2 -1.9 -89.2 0 -95.4 1.8 -6.1 7 -12.3 12.7 -15.2 4.4 -2.3 6.1 -2.6 16 -2.6 10.2 0 11.4 0.2 15.6 2.7 5.6 3.3 9.7 8.5 11.5 14.6 2.1 6.7 2 88.8 0 95.6 -3.3 11 -10.3 16.9 -21.3 18.2 -4.4 0.5 -6.3 0.3 -6.3 -0.5 0 -0.6 0.9 -1.1 2.1 -1.1 1.1 0 1.8 -0.4 1.5 -0.9 -0.3 -0.4 0.6 -0.6 1.9 -0.3 1.6 0.3 2.5 0 2.5 -0.8 0 -0.7 0.7 -1 1.6 -0.6 1 0.4 1.3 0.2 0.8 -0.6 -0.5 -0.8 -0.2 -0.9 1 -0.5 1 0.4 1.5 0.3 1.1 -0.3 -0.6 -1 0.9 -1.5 3 -1 0.5 0.1 0.7 -0.2 0.2 -0.6 -0.9 -1 3.3 -5.5 4.5 -4.8 0.5 0.3 0.8 0.2 0.7 -0.3 -0.3 -2 0.2 -3.4 1.1 -2.8 0.5 0.3 0.7 0 0.4 -0.8 -0.3 -0.8 0.2 -1.9 1 -2.6 0.8 -0.7 1.2 -1.9 0.9 -2.7 -0.3 -0.8 -0.1 -1.4 0.3 -1.4 0.5 0 0.9 -19.5 0.9 -43.4 0 -25.7 -0.4 -43.2 -0.9 -42.8 -0.5 0.3 -0.7 -0.5 -0.4 -1.6 0.4 -1.2 0.3 -2 -0.2 -1.7 -0.7 0.4 -2.1 -2.4 -2.4 -5 -0.1 -0.5 -0.4 -1 -0.8 -1 -1.4 0 -5.7 -4.9 -5.1 -5.8 0.3 -0.6 0.1 -0.7 -0.4 -0.4 -1 0.6 -7.1 -1.8 -8.3 -3.2 -0.8 -1 -13.9 -0.7 -13.2 0.3 0.3 0.5 -0.5 0.7 -1.6 0.4 -1.2 -0.4 -2.2 -0.2 -2.2 0.4 0 0.6 -0.7 0.7 -1.6 0.4 -0.8 -0.3 -1.2 -0.2 -0.9 0.4 0.6 0.9 -0.8 1.4 -2.8 1.1 -0.5 -0.1 -0.6 0.2 -0.3 0.7 0.6 1 -4.5 5.8 -5.7 5.4 -0.5 -0.1 -0.6 0.2 -0.3 0.7 0.3 0.5 -0.1 2.2 -0.9 3.7 -0.8 1.6 -1.5 3.5 -1.5 4.2 0 0.7 -0.3 1.1 -0.7 0.9 -0.5 -0.3 -0.8 19.5 -0.8 43.9 0 24.4 0.4 44.4 0.9 44.4 0.4 0 0.5 0.7 0.2 1.6 -0.3 0.8 -0.2 1.3 0.3 1 1.1 -0.7 2.3 2.2 1.4 3.6 -0.3 0.6 -0.2 0.9 0.3 0.6 0.5 -0.3 2.2 1.1 3.9 3.1 l2.9 3.6 -2.9 -2.5 -3 -2.5 2.4 2.7 c1.3 1.5 2.8 2.5 3.2 2.2 1.2 -0.7 5.1 2.1 4.2 3 -0.4 0.4 0 0.4 1 0 0.9 -0.3 1.7 -0.2 1.7 0.4 0 0.6 1 0.8 2.2 0.4 1.4 -0.3 1.9 -0.2 1.4 0.6 -0.5 0.8 0 1.2 1.3 1.2 1.2 0 2.1 0.5 2.1 1 0 1.7 -8.2 1.1 -12.5 -0.9z m-11.8 -101.3 c-0.2 -1.3 -0.4 -0.3 -0.4 2.2 0 2.5 0.2 3.5 0.4 2.3 0.2 -1.3 0.2 -3.3 0 -4.5z"/>
  <path d="M307.4 247.5 c0 -17.6 0.2 -24.7 0.3 -15.7 0.2 9 0.2 23.4 0 32 -0.1 8.6 -0.3 1.3 -0.3 -16.3z"/>
 </g>
 <g fill="#fff9e2">
  <path d="M596.5 729.5 c-22.9 -3.7 -37.7 -11.3 -51.8 -26.5 -10.7 -11.6 -20.4 -33.9 -18.4 -42.2 0.7 -2.7 4.1 -5.5 7.3 -5.8 1 -0.1 11.6 -0.2 23.4 -0.1 l21.5 0.1 2.8 7 c7.3 18 19.5 26.7 38.7 27.7 11.2 0.6 23.2 -1.9 30.9 -6.4 19 -11.1 30.7 -38.9 26 -61.5 -3.5 -16.6 -16.5 -30.2 -32.9 -34.4 -9.1 -2.3 -26.3 -1.5 -34.2 1.5 -8.3 3.2 -16.7 9.9 -22.8 18 l-5.3 7.1 -19.6 0.1 c-30.8 0.2 -31.1 0.2 -31.1 -7.5 -0.1 -2.3 3.1 -36.7 7.1 -76.6 l7.1 -72.5 2.9 -2.7 2.9 -2.8 76.6 0 c83.4 0 81.3 -0.1 83.4 5.6 0.6 1.4 1 9.8 1 18.7 0 17.3 -0.4 19.2 -5.3 21.9 -1.7 1 -16 1.4 -59.2 1.8 l-57 0.5 -0.7 5.5 c-0.4 3 -1.7 15.4 -2.8 27.5 -1.1 12.1 -2.3 24.2 -2.7 27 l-0.6 4.9 5.4 -4.7 c6.9 -6.1 17 -11 28.4 -13.8 10.6 -2.7 32.1 -3.1 44.4 -1 28 4.9 50 21.6 62.6 47.6 5.2 10.6 7.1 17.8 8.5 31 2.6 25.4 -5.2 51.7 -21.6 72.4 -13.4 17 -31.2 27.1 -55.4 31.7 -12.1 2.3 -47.6 2.8 -59.5 0.9z"/>
  <path d="M299.6 725.9 l-2.6 -2.1 0.2 -19.1 0.3 -19.1 7.5 -6.4 c22.1 -19.1 60.2 -54.4 80.1 -74.2 27.7 -27.6 35.9 -38.3 41.7 -54.2 2.3 -6.3 2.7 -8.8 2.7 -18.3 -0.1 -13.3 -2.2 -19.7 -9.1 -27.4 -13.1 -14.6 -40.3 -15.5 -55.9 -1.8 -5.8 5 -10.1 13 -12.8 23.2 -1.8 7.3 -2.7 9.2 -4.7 10.2 -1.8 0.9 -8.8 1.3 -24.1 1.3 -20.7 0 -21.7 -0.1 -24.4 -2.2 l-2.7 -2.1 0.6 -9.6 c0.9 -12.4 2.8 -19.7 7.7 -29.6 17.3 -34.5 54.9 -51.5 103.4 -46.6 16.1 1.7 27.2 4.4 38 9.5 16.8 8 27.1 18 35.1 34.1 6 12.1 7.8 21.9 7.1 38.5 -0.6 15.1 -2.8 23.5 -9.7 37.5 -8.9 17.9 -17.7 28.4 -60.7 71.5 -21.6 21.7 -39.3 39.7 -39.3 40.1 0 0.4 0.7 1 1.6 1.3 0.9 0.3 25.6 0.6 54.9 0.6 49.3 0 53.4 0.1 55.4 1.8 2.1 1.6 2.2 2.4 2.2 21.7 0 19.3 -0.1 20.1 -2.2 21.8 -2 1.6 -8 1.7 -94.9 1.7 -92.5 0 -92.7 0 -95.4 -2.1z"/>
  <path d="M323.3 338.9 c-17.5 -2.9 -32.2 -13.7 -39.8 -29.3 -6.4 -13.1 -6.6 -14.9 -6.4 -56.6 0.3 -41.7 0.5 -47.3 2.3 -46.3 0.6 0.4 0.5 -0.1 -0.3 -1 -1 -1.2 -1.2 -3.1 -0.7 -6.6 0.8 -5.9 5.1 -16.7 6.5 -16.4 1 0.3 1.5 -1.1 1.2 -3.1 -0.2 -1.1 8 -11.8 8.7 -11.2 0.2 0.3 1.5 -0.7 2.7 -2.2 6 -7 22.7 -13.3 34.9 -13.1 7.7 0.2 12.2 1.2 11.8 2.7 -0.1 0.7 0.2 1.2 0.8 1.2 0.5 0 1 -0.5 1 -1.1 0 -1.2 2.5 -0.6 9.8 2.7 2.9 1.3 5 2.9 4.7 3.4 -0.3 0.6 0.1 0.7 0.9 0.4 1 -0.4 2.8 0.6 4.7 2.5 1.7 1.7 3.4 3.1 3.8 3.1 0.9 0 7.3 7.5 8 9.3 0.2 0.6 -0.2 0.7 -0.9 0.2 -0.9 -0.5 -1.1 -0.4 -0.6 0.4 0.4 0.6 1.1 0.9 1.6 0.6 0.5 -0.3 1.4 0.4 2.1 1.6 0.9 1.7 0.8 2.4 -0.2 3.1 -1.1 0.8 -1 0.9 0.2 0.5 1.7 -0.6 3.9 2.9 3.9 6.1 0 1 0.6 2.4 1.3 3.1 0.7 0.7 1.2 3.9 1.2 8.1 0 3.7 0.3 6.3 0.7 5.7 0.5 -0.7 0.8 -0.3 0.8 1 0 1.7 -0.4 2.1 -1.7 1.7 -1.7 -0.5 -1.7 -0.5 0 0.9 0.9 0.8 1.7 2.5 1.6 3.8 0 2.1 -0.1 2.1 -0.8 0.6 -0.6 -1.7 -0.8 -1.6 -2 1 -0.7 1.5 -1 2.5 -0.6 2.1 0.4 -0.4 1.4 -0.1 2.2 0.7 1.2 1.2 1.4 7.4 1.1 38.7 l-0.3 37.3 -2.7 7.7 c-2.9 8.3 -7.9 15.7 -14.9 22.4 -9 8.4 -17.1 12.2 -30.4 14.4 -6.8 1.1 -8.9 1.1 -16.2 -0.1z m16.6 -30.5 c7.3 -2.1 14.4 -8.8 17.1 -16 1.9 -5.2 2 -7.7 2 -45.8 0 -45.1 -0.2 -47 -6.7 -54.5 -5 -5.9 -12 -9.1 -19.8 -9.1 -10.4 0.1 -18.3 4.9 -23.3 14.5 l-2.7 5 0 44 0 44 2.4 4.8 c4.1 8.4 13.5 14.4 22.7 14.6 1.7 0.1 5.4 -0.6 8.3 -1.5z m45.8 -109.1 c-0.3 -1 -0.5 -0.2 -0.5 1.7 0 1.9 0.2 2.7 0.5 1.8 0.2 -1 0.2 -2.6 0 -3.5z"/>
  <path d="M679 338.5 c-21.4 -4.3 -37.7 -20.8 -42.5 -43.1 -1.9 -8.8 -2 -86.4 -0.1 -86.4 0.7 0 0.6 -0.3 -0.2 -0.9 -1.4 -0.8 -1.2 -3.5 1 -13.6 0.9 -4.1 1.3 -4.6 2 -3 0.6 1.6 0.7 1.4 0.3 -0.7 -0.6 -3 3.7 -12.8 5.5 -12.8 0.6 0 0.9 -0.3 0.8 -0.7 -0.3 -0.9 6.2 -9.3 7.2 -9.3 0.4 0 2.4 -1.6 4.5 -3.6 2.1 -2 4.4 -3.3 5.2 -3 0.8 0.3 1.1 0.1 0.8 -0.4 -0.6 -1 0.7 -1.4 3.4 -1.1 0.7 0.2 1 -0.2 0.7 -0.7 -0.8 -1.3 7.8 -4.6 9.9 -3.8 0.9 0.3 1.3 0.2 1 -0.3 -0.8 -1.4 9.8 -2.4 17.4 -1.7 6.2 0.5 19.5 4.3 16.1 4.6 -1.2 0 -1.1 0.3 0.3 1.1 1 0.6 2.4 0.8 3.2 0.6 1.9 -0.8 10.8 5 9.9 6.5 -0.4 0.6 -0.3 0.8 0.4 0.4 0.6 -0.3 2.1 0.4 3.4 1.6 1.3 1.3 1.9 2 1.4 1.5 -2 -1.4 -2.6 -0.7 -0.8 1.1 0.9 1.1 2 1.7 2.3 1.6 0.8 -0.4 4.2 3.4 6.4 7.1 l1.7 3 -2.2 -2.5 c-1.2 -1.4 -1.9 -1.8 -1.6 -1 0.3 0.8 0.9 2.3 1.2 3.3 0.4 1 1.2 1.6 1.9 1.3 1.5 -0.5 2.8 2.1 1.8 3.6 -0.3 0.6 -0.1 0.8 0.5 0.4 1.6 -1 2.6 4.9 2.3 13.8 -0.2 5.4 0.1 7.6 0.8 7.2 0.7 -0.5 1 1.1 0.8 4.8 -0.1 3.1 0.2 5.6 0.6 5.6 0.5 0 0.7 16.8 0.5 37.3 l-0.4 37.2 -2.8 7.5 c-7.8 20.5 -22.9 33.7 -43.1 37.5 -9.1 1.8 -12.8 1.8 -21.5 0z m19.9 -30.1 c3.8 -1.1 6.7 -2.9 10.1 -6.3 7.9 -7.9 8 -8.3 8.2 -56.6 0.2 -41.6 0.2 -42 -2.1 -47 -3.9 -8.8 -10.1 -13.7 -19.6 -15.4 -11.9 -2.2 -23.6 4 -28.6 15.1 -2.4 5.3 -2.4 5.6 -2.7 45.1 -0.2 26.3 0.1 41.7 0.8 45.2 3.4 16.2 17.9 24.7 33.9 19.9z"/>
 </g>
</svg>